<svg width="54" height="54" viewBox="0 0 54 54" fill="none" xmlns="http://www.w3.org/2000/svg">
<path d="M26.8875 2.25H27.1125C31.2233 2.25 34.461 2.25 37.0575 2.48625C39.708 2.72475 41.9085 3.22425 43.875 4.3605C46.2691 5.7428 48.2572 7.7309 49.6395 10.125C50.7758 12.0915 51.2753 14.292 51.5138 16.9425C51.75 19.539 51.75 22.7767 51.75 26.8875V27.1125C51.75 31.2233 51.75 34.461 51.5138 37.0575C51.2753 39.708 50.7758 41.9085 49.6395 43.875C48.2572 46.2691 46.2691 48.2572 43.875 49.6395C41.9085 50.7758 39.708 51.2753 37.0575 51.5138C34.461 51.75 31.2233 51.75 27.1125 51.75H26.8875C22.7767 51.75 19.539 51.75 16.9425 51.5138C14.292 51.2753 12.0915 50.7758 10.125 49.6395C7.7309 48.2572 5.7428 46.2691 4.3605 43.875C3.22425 41.9085 2.72475 39.708 2.48625 37.0575C2.25 34.461 2.25 31.2233 2.25 27.1125V26.8875C2.25 22.7767 2.25 19.539 2.48625 16.9425C2.72475 14.292 3.22425 12.0915 4.3605 10.125C5.7428 7.7309 7.7309 5.7428 10.125 4.3605C12.0915 3.22425 14.292 2.72475 16.9425 2.48625C19.539 2.25 22.7767 2.25 26.8875 2.25ZM17.3475 6.966C15.0098 7.17975 13.5427 7.5825 12.375 8.2575C10.6649 9.24485 9.24485 10.6649 8.2575 12.375C7.5825 13.5427 7.1775 15.0098 6.966 17.3475C6.75225 19.719 6.75 22.752 6.75 27C6.75 31.248 6.75225 34.281 6.966 36.6525C7.17975 38.9903 7.5825 40.4573 8.2575 41.625C9.24485 43.3351 10.6649 44.7551 12.375 45.7425C13.5427 46.4175 15.0098 46.8225 17.3475 47.034C19.719 47.2477 22.752 47.25 27 47.25C31.248 47.25 34.281 47.2477 36.6525 47.034C38.9903 46.8202 40.4573 46.4175 41.625 45.7425C43.3351 44.7551 44.7551 43.3351 45.7425 41.625C46.4175 40.4573 46.8225 38.9903 47.034 36.6525C47.2477 34.2833 47.25 31.248 47.25 27C47.25 22.752 47.2477 19.719 47.034 17.3475C46.8202 15.0098 46.4175 13.5427 45.7425 12.375C44.7551 10.6649 43.3351 9.24485 41.625 8.2575C40.4573 7.5825 38.9903 7.1775 36.6525 6.966C34.2833 6.75225 31.248 6.75 27 6.75C22.752 6.75 19.719 6.75225 17.3475 6.966ZM37.6875 14.067C37.6875 12.825 38.7 11.8125 39.942 11.8125C41.184 11.8125 42.1965 12.825 42.1965 14.067C42.1965 15.309 41.184 16.3215 39.942 16.3215C38.7 16.3215 37.6875 15.309 37.6875 14.067ZM27 19.125C25.9658 19.125 24.9418 19.3287 23.9864 19.7244C23.0309 20.1202 22.1628 20.7003 21.4315 21.4315C20.7003 22.1628 20.1202 23.0309 19.7244 23.9864C19.3287 24.9418 19.125 25.9658 19.125 27C19.125 28.0342 19.3287 29.0582 19.7244 30.0136C20.1202 30.9691 20.7003 31.8372 21.4315 32.5685C22.1628 33.2997 23.0309 33.8798 23.9864 34.2756C24.9418 34.6713 25.9658 34.875 27 34.875C29.0886 34.875 31.0916 34.0453 32.5685 32.5685C34.0453 31.0916 34.875 29.0886 34.875 27C34.875 24.9114 34.0453 22.9084 32.5685 21.4315C31.0916 19.9547 29.0886 19.125 27 19.125ZM14.625 27C14.625 23.7179 15.9288 20.5703 18.2496 18.2496C20.5703 15.9288 23.7179 14.625 27 14.625C30.2821 14.625 33.4297 15.9288 35.7504 18.2496C38.0712 20.5703 39.375 23.7179 39.375 27C39.375 30.2821 38.0712 33.4297 35.7504 35.7504C33.4297 38.0712 30.2821 39.375 27 39.375C23.7179 39.375 20.5703 38.0712 18.2496 35.7504C15.9288 33.4297 14.625 30.2821 14.625 27Z" fill="black"/>
</svg>
