<svg width="60" height="60" viewBox="0 0 60 60" fill="none" xmlns="http://www.w3.org/2000/svg">
<g clip-path="url(#clip0_6_14)">
<path d="M53.8833 9.99998C53.6562 9.97657 53.4272 9.97657 53.2 9.99998H6.53333C6.23423 10.0046 5.93712 10.0494 5.64999 10.1333L29.7333 34.1166L53.8833 9.99998Z" fill="black"/>
<path d="M56.35 12.3167L32.0833 36.4833C31.4588 37.1042 30.6139 37.4526 29.7333 37.4526C28.8527 37.4526 28.0079 37.1042 27.3833 36.4833L3.33333 12.5C3.25939 12.7717 3.22019 13.0517 3.21666 13.3333V46.6667C3.21666 47.5507 3.56785 48.3986 4.19297 49.0237C4.81809 49.6488 5.66594 50 6.54999 50H53.2167C54.1007 50 54.9486 49.6488 55.5737 49.0237C56.1988 48.3986 56.55 47.5507 56.55 46.6667V13.3333C56.5367 12.9861 56.4692 12.643 56.35 12.3167ZM8.83333 46.6667H6.51666V44.2833L18.6333 32.2667L20.9833 34.6167L8.83333 46.6667ZM53.1833 46.6667H50.85L38.7 34.6167L41.05 32.2667L53.1667 44.2833L53.1833 46.6667Z" fill="black"/>
</g>
<defs>
<clipPath id="clip0_6_14">
<rect width="60" height="60" fill="white"/>
</clipPath>
</defs>
</svg>
