<svg width="56" height="56" viewBox="0 0 56 56" fill="none" xmlns="http://www.w3.org/2000/svg">
<path fill-rule="evenodd" clip-rule="evenodd" d="M45.3611 10.6203C43.096 8.35413 40.4051 6.55835 37.4432 5.33634C34.4812 4.11434 31.3069 3.49025 28.1028 3.49999C14.6562 3.49999 3.71 14.3916 3.70453 27.7812C3.69853 32.0448 4.8224 36.2339 6.96172 39.9219L3.5 52.5L16.4336 49.1236C20.0136 51.0632 24.0213 52.0783 28.093 52.0767H28.1028C41.5483 52.0767 52.4934 41.1841 52.5 27.7955C52.5081 24.6023 51.8812 21.4394 50.6556 18.4909C49.43 15.5423 47.6303 12.8669 45.3611 10.6203ZM28.1028 47.9784H28.0941C24.4643 47.9795 20.9006 47.0081 17.7734 45.1653L17.033 44.7278L9.35812 46.7316L11.4067 39.2842L10.9244 38.5186C8.8948 35.3053 7.81949 31.5818 7.82359 27.7812C7.82359 16.6545 16.9247 7.60155 28.1105 7.60155C33.4764 7.59197 38.6264 9.71417 42.4278 13.5014C46.2291 17.2886 48.3705 22.4306 48.3809 27.7966C48.3766 38.9244 39.2798 47.9784 28.1028 47.9784ZM39.2252 32.8639C38.6159 32.5598 35.6158 31.092 35.0602 30.8897C34.5045 30.6873 34.0944 30.5856 33.6886 31.1937C33.2828 31.8019 32.1136 33.1625 31.7581 33.5726C31.4027 33.9828 31.0472 34.0276 30.438 33.7236C29.8288 33.4195 27.8633 32.7797 25.5347 30.7125C23.7223 29.1036 22.4995 27.1173 22.1441 26.5103C21.7886 25.9033 22.1058 25.5741 22.4109 25.2722C22.6855 24.9998 23.0202 24.5634 23.3253 24.2091C23.6305 23.8547 23.7322 23.6009 23.9345 23.1962C24.1369 22.7916 24.0362 22.4372 23.8842 22.1342C23.7322 21.8312 22.5127 18.8442 22.0052 17.6291C21.5097 16.4456 21.0077 16.6064 20.6336 16.5878C20.2781 16.5703 19.868 16.5659 19.4644 16.5659C19.1558 16.574 18.8523 16.6455 18.5726 16.7761C18.293 16.9067 18.0433 17.0936 17.8391 17.325C17.2802 17.9331 15.7052 19.4031 15.7052 22.3869C15.7052 25.3706 17.8927 28.2581 18.1945 28.6628C18.4964 29.0675 22.493 35.1958 28.6081 37.8241C29.7436 38.3104 30.9039 38.7368 32.0841 39.1016C33.5442 39.5631 34.8731 39.4986 35.9231 39.3422C37.0945 39.1683 39.5325 37.8744 40.0389 36.4569C40.5453 35.0394 40.5464 33.8253 40.3944 33.5726C40.2423 33.32 39.8355 33.1669 39.2252 32.8639Z" fill="black"/>
</svg>
