<svg width="21" height="21" viewBox="0 0 21 21" fill="none" xmlns="http://www.w3.org/2000/svg">
<path d="M18.375 16.625V17.5H2.625V16.625L4.375 14.875V9.625C4.375 6.9125 6.15125 4.52375 8.75 3.75375V3.5C8.75 3.03587 8.93438 2.59075 9.26256 2.26256C9.59075 1.93437 10.0359 1.75 10.5 1.75C10.9641 1.75 11.4092 1.93437 11.7374 2.26256C12.0656 2.59075 12.25 3.03587 12.25 3.5V3.75375C14.8488 4.52375 16.625 6.9125 16.625 9.625V14.875L18.375 16.625ZM12.25 18.375C12.25 18.8391 12.0656 19.2842 11.7374 19.6124C11.4092 19.9406 10.9641 20.125 10.5 20.125C10.0359 20.125 9.59075 19.9406 9.26256 19.6124C8.93438 19.2842 8.75 18.8391 8.75 18.375" fill="#487979"/>
</svg>
