<svg width="21" height="21" viewBox="0 0 21 21" fill="none" xmlns="http://www.w3.org/2000/svg">
<path fill-rule="evenodd" clip-rule="evenodd" d="M20.3805 3.90207C20.5632 3.97499 20.7199 4.10099 20.8303 4.26382C20.9408 4.42665 20.9998 4.61883 21 4.81557V16.1844C20.9998 16.3812 20.9408 16.5734 20.8303 16.7362C20.7199 16.899 20.5632 17.025 20.3805 17.0979L10.8649 20.9042C10.6302 20.998 10.3685 20.998 10.1338 20.9042L0.618187 17.0979C0.435709 17.0248 0.279307 16.8987 0.169129 16.7359C0.0589517 16.5731 4.57536e-05 16.381 0 16.1844L0 4.81557C4.57536e-05 4.61898 0.0589517 4.42691 0.169129 4.2641C0.279307 4.10129 0.435709 3.9752 0.618187 3.90207L9.76894 0.241503L9.77419 0.24019L10.1338 0.0958153C10.3689 0.00162073 10.6311 0.00162073 10.8662 0.0958153L11.2258 0.24019L11.2311 0.241503L20.3805 3.90207ZM18.5771 4.59375L10.5 7.82513L2.42287 4.59375L1.3125 5.03869V5.56369L9.84375 8.97619V19.3738L10.5 19.6363L11.1562 19.3738V8.9775L19.6875 5.565V5.04L18.5771 4.59375Z" fill="#487979"/>
</svg>
