<svg width="61" height="49" viewBox="0 0 61 49" fill="none" xmlns="http://www.w3.org/2000/svg">
<path d="M54.75 0H6.08333C2.7375 0 0.0304166 2.7375 0.0304166 6.08333L0 42.5833C0 45.9292 2.7375 48.6667 6.08333 48.6667H54.75C58.0958 48.6667 60.8333 45.9292 60.8333 42.5833V6.08333C60.8333 2.7375 58.0958 0 54.75 0ZM53.5333 12.9271L32.0287 26.3712C31.0554 26.9796 29.7779 26.9796 28.8046 26.3712L7.3 12.9271C6.995 12.7559 6.72792 12.5246 6.51491 12.2471C6.3019 11.9697 6.1474 11.6519 6.06075 11.3131C5.9741 10.9742 5.95711 10.6213 6.01081 10.2757C6.06451 9.93006 6.18777 9.59893 6.37315 9.30233C6.55852 9.00573 6.80215 8.74983 7.08929 8.55011C7.37643 8.35039 7.70111 8.21101 8.04367 8.14041C8.38624 8.0698 8.73957 8.06944 9.08228 8.13934C9.42499 8.20924 9.74995 8.34795 10.0375 8.54708L30.4167 21.2917L50.7958 8.54708C51.0834 8.34795 51.4083 8.20924 51.7511 8.13934C52.0938 8.06944 52.4471 8.0698 52.7897 8.14041C53.1322 8.21101 53.4569 8.35039 53.744 8.55011C54.0312 8.74983 54.2748 9.00573 54.4602 9.30233C54.6456 9.59893 54.7688 9.93006 54.8225 10.2757C54.8762 10.6213 54.8592 10.9742 54.7726 11.3131C54.6859 11.6519 54.5314 11.9697 54.3184 12.2471C54.1054 12.5246 53.8383 12.7559 53.5333 12.9271Z" fill="white"/>
</svg>
