<svg width="51" height="51" viewBox="0 0 51 51" fill="none" xmlns="http://www.w3.org/2000/svg">
<path d="M25.919 0.833313C39.7265 0.833313 50.919 12.0258 50.919 25.8333C50.919 39.6408 39.7265 50.8333 25.919 50.8333C21.5009 50.8409 17.1604 49.6717 13.344 47.4458L0.928984 50.8333L4.30898 38.4133C2.08138 34.5956 0.911241 30.2534 0.918983 25.8333C0.918983 12.0258 12.1115 0.833313 25.919 0.833313ZM17.399 14.0833L16.899 14.1033C16.5757 14.1256 16.2599 14.2105 15.969 14.3533C15.6979 14.5071 15.4504 14.6991 15.234 14.9233C14.934 15.2058 14.764 15.4508 14.5815 15.6883C13.6568 16.8906 13.1589 18.3666 13.1665 19.8833C13.1715 21.1083 13.4915 22.3008 13.9915 23.4158C15.014 25.6708 16.6965 28.0583 18.9165 30.2708C19.4515 30.8033 19.9765 31.3383 20.5415 31.8358C23.3001 34.2643 26.5872 36.0157 30.1415 36.9508L31.5615 37.1683C32.024 37.1933 32.4865 37.1583 32.9515 37.1358C33.6794 37.0974 34.3902 36.9003 35.034 36.5583C35.3611 36.3892 35.6806 36.2057 35.9915 36.0083C35.9915 36.0083 36.0973 35.9366 36.304 35.7833C36.6415 35.5333 36.849 35.3558 37.129 35.0633C37.339 34.8466 37.514 34.595 37.654 34.3083C37.849 33.9008 38.044 33.1233 38.124 32.4758C38.184 31.9808 38.1665 31.7108 38.159 31.5433C38.149 31.2758 37.9265 30.9983 37.684 30.8808L36.229 30.2283C36.229 30.2283 34.054 29.2808 32.724 28.6758C32.5848 28.6152 32.4357 28.5805 32.284 28.5733C32.1129 28.5554 31.94 28.5745 31.777 28.6293C31.6139 28.6841 31.4645 28.7733 31.339 28.8908C31.3265 28.8858 31.159 29.0283 29.3515 31.2183C29.2477 31.3577 29.1048 31.4631 28.941 31.5209C28.7771 31.5788 28.5998 31.5866 28.4315 31.5433C28.2685 31.4999 28.109 31.4447 27.954 31.3783C27.644 31.2483 27.5365 31.1983 27.324 31.1083C25.8887 30.4831 24.5601 29.637 23.3865 28.6008C23.0715 28.3258 22.779 28.0258 22.479 27.7358C21.4955 26.7938 20.6384 25.7283 19.929 24.5658L19.7815 24.3283C19.6771 24.1678 19.5916 23.9958 19.5265 23.8158C19.4315 23.4483 19.679 23.1533 19.679 23.1533C19.679 23.1533 20.2865 22.4883 20.569 22.1283C20.844 21.7783 21.0765 21.4383 21.2265 21.1958C21.5215 20.7208 21.614 20.2333 21.459 19.8558C20.759 18.1458 20.0356 16.445 19.289 14.7533C19.1415 14.4183 18.704 14.1783 18.3065 14.1308C18.1715 14.1141 18.0365 14.1008 17.9015 14.0908C17.5658 14.0716 17.2292 14.0749 16.894 14.1008L17.399 14.0833Z" fill="white"/>
</svg>
